<svg xmlns="http://www.w3.org/2000/svg" viewBox="0 0 1400 728" role="img" aria-labelledby="c1title">
  <title id="c1title">Превью кейса: Fintech-приложение (заглушка)</title>
  <defs>
    <linearGradient id="bg1" x1="0" y1="0" x2="1" y2="1">
      <stop offset="0" stop-color="#eaf6ff"/>
      <stop offset="1" stop-color="#dcf0ff"/>
    </linearGradient>
    <linearGradient id="phoneDark1" x1="0" y1="0" x2="0" y2="1">
      <stop offset="0" stop-color="#2b2f3a"/>
      <stop offset="1" stop-color="#14161c"/>
    </linearGradient>
  </defs>
  <rect width="1400" height="728" rx="24" fill="url(#bg1)"/>

  <g transform="translate(155,80)">
    <rect width="230" height="500" rx="34" fill="url(#phoneDark1)"/>
    <rect x="14" y="34" width="202" height="432" rx="18" fill="#1b1e27"/>
    <text x="30" y="80" fill="#8fa0b8" font-family="Arial, sans-serif" font-size="14">Баланс</text>
    <text x="30" y="112" fill="#ffffff" font-family="Arial, sans-serif" font-size="30" font-weight="700">$1652.71</text>
    <polyline points="30,220 60,190 90,205 120,150 150,175 180,120" fill="none" stroke="#009dff" stroke-width="4" stroke-linecap="round" stroke-linejoin="round"/>
    <rect x="30" y="330" width="170" height="46" rx="12" fill="#242832"/>
    <rect x="30" y="386" width="170" height="46" rx="12" fill="#242832"/>
  </g>

  <g transform="translate(430,40)">
    <rect width="250" height="560" rx="36" fill="#ffffff" stroke="#d7e6f2" stroke-width="2"/>
    <rect x="16" y="36" width="218" height="60" rx="12" fill="#f2f6fa"/>
    <text x="32" y="72" fill="#28282e" font-family="Arial, sans-serif" font-size="16" font-weight="600">Продукты</text>
    <rect x="16" y="112" width="218" height="90" rx="14" fill="#f7fafc" stroke="#e3edf4"/>
    <rect x="16" y="214" width="218" height="90" rx="14" fill="#f7fafc" stroke="#e3edf4"/>
    <rect x="16" y="316" width="218" height="90" rx="14" fill="#f7fafc" stroke="#e3edf4"/>
    <rect x="32" y="132" width="130" height="12" rx="6" fill="#c7d6e2"/>
    <rect x="32" y="154" width="90" height="10" rx="5" fill="#dbe6ee"/>
    <rect x="32" y="234" width="130" height="12" rx="6" fill="#c7d6e2"/>
    <rect x="32" y="256" width="90" height="10" rx="5" fill="#dbe6ee"/>
  </g>

  <g transform="translate(1010,150)">
    <rect width="190" height="410" rx="30" fill="#0d0f14"/>
    <text x="24" y="60" fill="#9aa6b8" font-family="Arial, sans-serif" font-size="12">Отслеживание</text>
    <text x="24" y="86" fill="#ffffff" font-family="Arial, sans-serif" font-size="22" font-weight="700">US$1652.71</text>
    <polyline points="24,180 44,160 64,168 84,120 104,150 124,90 144,110" fill="none" stroke="#009dff" stroke-width="3" stroke-linecap="round" stroke-linejoin="round"/>
    <rect x="24" y="240" width="142" height="14" rx="7" fill="#1c1f27"/>
    <rect x="24" y="266" width="142" height="14" rx="7" fill="#1c1f27"/>
    <rect x="24" y="292" width="90" height="14" rx="7" fill="#1c1f27"/>
  </g>

  <text x="700" y="700" text-anchor="middle" fill="#65626c" font-family="Arial, sans-serif" font-size="18">Заглушка — заменить на скриншоты из макета</text>
</svg>
